<?xml version="1.0" encoding="UTF-8"?>
<svg width="32px" height="32px" viewBox="0 0 32 32" version="1.1" xmlns="http://www.w3.org/2000/svg" xmlns:xlink="http://www.w3.org/1999/xlink">
    <!-- Generator: Sketch 50.2 (55047) - http://www.bohemiancoding.com/sketch -->
    <title>Icons/vas/ve may bay Copy</title>
    <desc>Created with Sketch.</desc>
    <defs>
        <path d="M19.7906667,8.36533333 L20,4 C20,2.94266667 19.5746667,1.91066667 18.8306667,1.16933333 C18.0893333,0.425333333 17.0573333,0 16,0 C13.7946667,0 12,1.79466667 12.0013333,4.032 L12.208,8.36533333 L0.302666667,16.108 C0.114666667,16.2306667 0,16.4413333 0,16.6666667 L0,19.3333333 C0,19.532 0.088,19.72 0.242666667,19.848 C0.394666667,19.9733333 0.594666667,20.0253333 0.792,19.988 L12.6786667,17.716 L13.0626667,25.6666667 L9.61466667,28.1093333 C9.43866667,28.2346667 9.33333333,28.4373333 9.33333333,28.6533333 L9.33333333,31.3333333 C9.33333333,31.5346667 9.424,31.7266667 9.584,31.8533333 C9.74133333,31.9813333 9.948,32.0293333 10.1453333,31.9853333 L16,30.6826667 L21.856,31.9853333 C21.904,31.9946667 21.952,32 22,32 C22.1493333,32 22.2986667,31.9493333 22.4173333,31.8533333 C22.576,31.7266667 22.6666667,31.5346667 22.6666667,31.3333333 L22.6666667,28.6533333 C22.6666667,28.4373333 22.5613333,28.2346667 22.3853333,28.1093333 L18.9373333,25.6666667 L19.3213333,17.716 L31.208,19.988 C31.4013333,20.024 31.6053333,19.972 31.7573333,19.848 C31.912,19.72 32,19.532 32,19.3333333 L32,16.6666667 C32,16.4413333 31.8853333,16.2306667 31.696,16.108 L19.7906667,8.36533333 L19.7906667,8.36533333 Z M30.6666667,18.528 L18.8213333,16.264 C18.648,16.2346667 18.4693333,16.272 18.3293333,16.3613333 C18.156,16.4746667 18.0373333,16.6666667 18.0266667,16.8893333 L17.588,25.9693333 C17.576,26.1973333 17.6813333,26.4146667 17.868,26.5466667 L21.3333333,28.9986667 L21.3333333,30.5026667 L16.144,29.3493333 C16.096,29.3386667 16.048,29.3333333 16,29.3333333 C15.952,29.3333333 15.904,29.3386667 15.856,29.3493333 L10.6666667,30.5026667 L10.6666667,28.9986667 L14.132,26.544 C14.3186667,26.412 14.424,26.1946667 14.412,25.9666667 L13.9733333,16.8866667 C13.964,16.676 13.8493333,16.4786667 13.6733333,16.3613333 C13.528,16.2653333 13.352,16.2293333 13.1786667,16.2613333 L1.33333333,18.528 L1.33333333,17.0293333 L13.2373333,9.288 C13.3293333,9.232 13.4106667,9.15333333 13.4693333,9.056 C13.5533333,8.91733333 13.58,8.75733333 13.5546667,8.60666667 L13.3333333,4 C13.3333333,2.52933333 14.5293333,1.33333333 16,1.33333333 C16.7053333,1.33333333 17.3946667,1.61733333 17.888,2.112 C18.3826667,2.60533333 18.6666667,3.29466667 18.668,3.968 L18.444,8.61066667 C18.4053333,8.86266667 18.5133333,9.12533333 18.74,9.272 L30.6666667,17.028 L30.6666667,18.528 L30.6666667,18.528 Z" id="path-1"></path>
    </defs>
    <g id="Icons/vas/ve-may-bay-Copy" stroke="none" stroke-width="1" fill="none" fill-rule="evenodd">
        <polygon id="Bound" fill="#FFFFFF" opacity="0" points="0 0 32 0 32 32 0 32"></polygon>
        <g id="shape">
            <mask id="mask-2" fill="white">
                <use xlink:href="#path-1"></use>
            </mask>
            <use id="Shape" fill="#787878" xlink:href="#path-1"></use>
            <g id="UI/Color/Light/Active" mask="url(#mask-2)" fill="#FFFFFF">
                <rect id="Base" x="0" y="0" width="31.6666667" height="31.6666667"></rect>
            </g>
        </g>
    </g>
</svg>